<?xml version="1.0" encoding="utf-8"?>
<!-- Generator: Adobe Illustrator 24.0.1, SVG Export Plug-In . SVG Version: 6.00 Build 0)  -->
<svg version="1.1" id="Layer_1" xmlns="http://www.w3.org/2000/svg" xmlns:xlink="http://www.w3.org/1999/xlink" x="0px" y="0px"
	 width="576" height="288" viewBox="0 0 576 288" style="enable-background:new 0 0 576 288;" xml:space="preserve">
<style type="text/css">
	.st0{fill:url(#Path_78_1_);}
	.st1{fill:url(#Path_79_1_);}
	.st2{fill:url(#Path_80_1_);}
	.st3{fill:url(#Path_81_1_);}
	.st4{fill:url(#Path_82_1_);}
	.st5{fill:url(#Path_83_1_);}
	.st6{fill:url(#Path_84_1_);}
</style>
<g id="Gradient_logo" transform="translate(-59.7 -49.831)">
	
		<linearGradient id="Path_78_1_" gradientUnits="userSpaceOnUse" x1="111.3419" y1="318.4579" x2="111.3419" y2="312.3421" gradientTransform="matrix(7.6099 0 0 -12.8027 -464.5265 4230.0781)">
		<stop  offset="0" style="stop-color:#FCAD63"/>
		<stop  offset="1" style="stop-color:#F58227"/>
	</linearGradient>
	<path id="Path_78" class="st0" d="M405.9,177.9c-0.1-2.4-0.2-4.8-0.2-7.2v-13.1c-5.5-3.5-12-5.1-18.5-4.6
		c-9.6,0.9-18.6,4.6-26.1,10.7c-0.7,0.5-1.2,0.9-1.6,1.3c4.8,9.6,7,20.2,6.5,30.9c-0.4,8.1-2.3,16.1-5.6,23.5
		c-0.2,0.7-0.3,1.1-0.3,1.1c4.2,4.6,9.7,7.7,15.8,9.1c6.3,1.7,12.9,2,19.3,0.9c3.6-0.8,7.1-1.8,10.5-3.2v-26.3
		c-4.7,2.8-9.9,4.6-15.3,5.4c-6.1,0.1-11.6-3.7-13.6-9.5c-1.2-3.5-1-7.3,0.5-10.7c1.6-2.9,4.1-5.3,7.1-6.7c3.5-1.5,7.4-1.6,10.9-0.3
		c1.9,0.6,3.7,1.4,5.4,2.3c0.9,0.4,1.7,0.9,2.5,1.4c0.8,0.6,1.6,1.2,2.5,1.6c0.1-0.9,0.1-2.2,0.1-3.1
		C406,180.4,406,179.1,405.9,177.9z"/>
	
		<linearGradient id="Path_79_1_" gradientUnits="userSpaceOnUse" x1="79.6603" y1="317.8619" x2="79.6725" y2="311.9602" gradientTransform="matrix(12.242 0 0 -12.666 -778.4097 4183.6328)">
		<stop  offset="0" style="stop-color:#24DCF1"/>
		<stop  offset="1" style="stop-color:#088AC7"/>
	</linearGradient>
	<path id="Path_79" class="st1" d="M225.1,191.2c0.5-11.1,3.7-21.8,9.2-31.4v-7.6h-23.9v37.2l-22.8-37.2l-19.1-0.1l-9.1,13.2v64.2
		h27v-35.7l22.4,35.7h25.4v-1.8C227.6,216.8,224.4,204.1,225.1,191.2z"/>
	
		<linearGradient id="Path_80_1_" gradientUnits="userSpaceOnUse" x1="76.0833" y1="326.6064" x2="76.016" y2="320.246" gradientTransform="matrix(20.796 0 0 -19.997 -1285.7319 6664.4312)">
		<stop  offset="0" style="stop-color:#24DCF1"/>
		<stop  offset="1" style="stop-color:#088AC7"/>
	</linearGradient>
	<path id="Path_80" class="st2" d="M300.9,132.9c-37.6-2.3-66.6,22.4-68.6,58.4c-1.8,33.3,25.3,61.7,60.9,63.7
		c34.6,1.6,64-24.8,66.2-59.4C360,162.4,334.1,134.6,300.9,132.9z M256,181.1c0-3.4,2.7-6.1,6.1-6.1c0.1,0,0.2,0,0.3,0
		c4.5-0.2,9-0.1,13.5-0.1c4,0,8-0.1,11.9,0c4,0.1,6.8,2,6.8,6.3c0.2,3.1-2.2,5.8-5.3,6c-0.3,0-0.6,0-1,0c-8.7,0.2-17.4,0.2-26.1,0.1
		c-3.1,0.3-5.9-2.1-6.2-5.2C255.9,181.7,255.9,181.4,256,181.1z M326.7,219c-7.1,9.9-18.4,15.8-30.6,16
		c-11.9-0.1-23.1-5.6-30.4-14.9c-2.8-3.1-4.1-6.4,0.1-9.5c4.3-3.1,5.7,0.8,7.6,3.2c13.5,16.2,32.3,16,45.5-0.9
		c2.5-3.2,4.8-5.2,8.5-2.2C330.9,213.5,328.6,216.3,326.7,219z M327.5,197.2c-2.7,4.4-8.4,5.7-12.8,3c-1.2-0.7-2.2-1.7-3-2.9
		c-7-10.3-7-23.9-0.1-34.2c2.7-4.4,8.4-5.7,12.7-3.1c1.2,0.8,2.3,1.8,3,3c3.7,5.4,5.6,11.9,5.4,18.4
		C332.8,187.1,330.9,192.6,327.5,197.2L327.5,197.2z"/>
	
		<linearGradient id="Path_81_1_" gradientUnits="userSpaceOnUse" x1="74.2253" y1="318.0943" x2="74.2619" y2="311.9501" gradientTransform="matrix(12.729 0 0 -12.666 -819.9503 4183.6328)">
		<stop  offset="0" style="stop-color:#24DCF1"/>
		<stop  offset="1" style="stop-color:#088AC7"/>
	</linearGradient>
	<path id="Path_81" class="st3" d="M86.2,152.2v77.4l29.9-0.1v-26.9l16.5,27h24v-17.8l-15-21l22.4-38.6h-31.5l-17.9,31v-31.1
		L86.2,152.2z"/>
	
		<linearGradient id="Path_82_1_" gradientUnits="userSpaceOnUse" x1="97.4659" y1="317.8671" x2="97.4659" y2="311.7514" gradientTransform="matrix(12 0 0 -12.452 -722.719 4111.291)">
		<stop  offset="0" style="stop-color:#FCAD63"/>
		<stop  offset="1" style="stop-color:#F58227"/>
	</linearGradient>
	<path id="Path_82" class="st4" d="M456.7,153.2h-31.4l-15,37.5v38.7h17.1l2.6-8.9H449l3.2,8.9h31.4L456.7,153.2z M433.8,202.6
		l5.3-24.1l6.6,24.1H433.8z"/>
	
		<linearGradient id="Path_83_1_" gradientUnits="userSpaceOnUse" x1="105.8647" y1="318.3378" x2="105.8647" y2="312.222" gradientTransform="matrix(10.8221 0 0 -12.6792 -641.2135 4188.0522)">
		<stop  offset="0" style="stop-color:#FCAD63"/>
		<stop  offset="1" style="stop-color:#F58227"/>
	</linearGradient>
	<path id="Path_83" class="st5" d="M535.3,166.3c-2.3-5.8-6.8-10.4-12.5-12.7c-4.6-1.4-9.3-2-14.1-1.7c-6.2,0.1-12.4,0.1-18.7,0.1
		c-3.1,0-6.2,0.1-9.2,0.1c-3.1-0.3-6.1-0.2-9.2,0.1c-0.5,5.3-0.1,10.9-0.1,16.3c0,5.6,0,11.1-0.1,16.7c-0.1,1.8,0.1,3.6,0.3,5.4
		c0,0.1,0.1,0.3,0.1,0.4c0.3,1.4,0.8,2.8,1.4,4.2c4.4,11.4,8.8,22.8,13.2,34.2h12V207c4.5,7.4,9,14.9,13.5,22.3h21V214
		c0-0.8,0-1.7-0.3-2.5c-0.3-0.7-0.7-1.4-1.2-2c-2.8-3.7-5.8-7.2-8.6-11c0.9,0,1.7-0.2,2.5-0.5c2.9-1.3,5.5-3.1,7.7-5.3
		c2.2-2.6,3.6-5.8,4-9.3C538.1,177.6,537.5,171.7,535.3,166.3z M498.2,187.6v-16.3c0,0,12.4-0.9,12.4,7.1
		C510.5,186.5,504,188,498.2,187.6z"/>
	
		<linearGradient id="Path_84_1_" gradientUnits="userSpaceOnUse" x1="106.0429" y1="318.0345" x2="106.0429" y2="311.9187" gradientTransform="matrix(12.0547 0 0 -12.551 -705.4676 4144.8174)">
		<stop  offset="0" style="stop-color:#FCAD63"/>
		<stop  offset="1" style="stop-color:#F58227"/>
	</linearGradient>
	<path id="Path_84" class="st6" d="M601.5,168c-11.9-14.2-22.8-14.7-36.6-14.8c-13.5-0.1-28.5,0-29,0c0,0-0.1,5.7,0,6.2
		c0.1,2.9,2.7,5.3,3.8,8c2.2,5.5,2.8,11.5,1.6,17.3c-1.1,4-2.9,7.8-5.3,11.3v33.5c0.5,0.1,1.1,0.1,1.6,0h4.3
		c14.3,0,31.1,2.4,44.5-3.1c5.5-2,10.6-5.2,14.9-9.2c0.8-0.9,1.6-1.8,2.3-2.8c3-4.4,4.9-9.6,5.4-14.9
		C611.1,188.3,608.4,176.9,601.5,168z M580.1,198.6c-1.7,2.6-4.2,4.6-7,5.8c-1.7,0.8-3.5,1.4-5.3,1.8c-0.4,0.1-5.1,0.9-5.1,0.8
		v-12.9c0-1.1,0.1-16.9,0.1-16.9c2.9,0,5.7,0.3,8.5,0.9c2.8,0.6,5.4,2.1,7.3,4.2c1.6,2,2.6,4.5,2.9,7
		C582.2,192.5,581.7,195.8,580.1,198.6L580.1,198.6z"/>
</g>
</svg>
